<?xml version="1.0" encoding="UTF-8" standalone="no"?>
<svg
   version="1.1"
   id="Layer_1"
   x="0px"
   y="0px"
   width="20"
   height="20"
   viewBox="0 0 20 20"
   enable-background="new 0 0 72 72"
   xml:space="preserve"
   xmlns="http://www.w3.org/2000/svg"
   xmlns:svg="http://www.w3.org/2000/svg">
   <defs id="defs3170" />
<g
   id="g3165"
   transform="matrix(0.30768757,0,0,0.30769231,-1.0769065,-1.0769231)"
   style="fill:#ffffff">
	<g
   id="g3145"
   style="fill:#ffffff">
		<path
   d="m 35.649,45.188 c -5.066,0 -9.188,-4.121 -9.188,-9.188 0,-5.066 4.121,-9.188 9.188,-9.188 5.065,0 9.188,4.122 9.188,9.188 0,5.067 -4.122,9.188 -9.188,9.188 z m 0,-14.376 c -2.86,0 -5.188,2.327 -5.188,5.188 0,2.861 2.327,5.188 5.188,5.188 2.861,0 5.188,-2.327 5.188,-5.188 0,-2.861 -2.327,-5.188 -5.188,-5.188 z"
   id="path3143"
   style="fill:#ffffff" />
	</g>
	<g
   id="g3149"
   style="fill:#ffffff">
		<path
   d="M 35.913,68.5 H 35.72 c -3.65,0 -6.958,-2.748 -8.125,-6.572 -1.561,-0.485 -3.078,-1.115 -4.536,-1.881 -1.498,0.842 -3.155,1.297 -4.777,1.297 -2.091,0 -4.015,-0.773 -5.418,-2.177 L 12.692,58.985 C 10.151,56.445 9.768,52.162 11.658,48.628 10.906,47.188 10.384,45.652 9.89,44.043 6.06,42.886 3.5,39.717 3.5,36.123 V 35.93 c 0,-3.607 2.558,-6.795 6.384,-7.966 0.519,-1.718 1.103,-3.29 1.876,-4.755 -1.943,-3.501 -1.652,-7.604 0.887,-10.144 l 0.126,-0.139 c 1.462,-1.462 3.494,-2.269 5.731,-2.269 1.628,0 3.261,0.424 4.717,1.211 1.364,-0.705 2.781,-1.292 4.236,-1.753 C 28.459,6.262 31.806,3.5 35.72,3.5 h 0.193 c 3.859,0 7.03,2.714 7.96,6.625 1.474,0.469 2.909,1.065 4.288,1.783 1.399,-0.82 2.991,-1.262 4.597,-1.262 2.262,0 4.368,0.86 5.931,2.422 l 0.103,0.095 c 2.772,2.771 3.104,6.936 1.002,10.354 0.73,1.394 1.436,2.813 1.897,4.242 3.905,0.924 6.81,4.232 6.81,8.171 v 0.193 c 0,3.918 -2.906,7.207 -6.815,8.121 -0.438,1.333 -1.068,2.691 -1.781,4.062 2.063,3.443 1.637,7.79 -1.157,10.585 l -0.146,0.213 C 57.103,60.6 55.098,61.5 52.983,61.5 h 0.002 c -1.601,0 -3.214,-0.549 -4.656,-1.42 -1.47,0.779 -3.003,1.38 -4.583,1.873 -1.083,3.885 -4.215,6.547 -7.833,6.547 z M 22.983,55.719 c 0.349,0 0.697,0.09 1.01,0.273 1.821,1.064 3.767,1.873 5.78,2.4 0.76,0.198 1.333,0.824 1.465,1.598 0.431,2.529 2.399,4.51 4.481,4.51 h 0.193 c 2.282,0 3.818,-2.252 4.155,-4.477 0.119,-0.79 0.697,-1.433 1.47,-1.635 2.061,-0.541 4.042,-1.37 5.891,-2.465 0.721,-0.428 1.632,-0.359 2.282,0.169 0.989,0.806 2.153,1.249 3.277,1.25 v 0 c 1.062,0 2.019,-0.396 2.768,-1.145 l 0.133,-0.134 c 1.654,-1.654 1.683,-4.389 0.066,-6.361 -0.524,-0.641 -0.6,-1.539 -0.189,-2.258 1.075,-1.887 1.856,-3.732 2.323,-5.488 0.217,-0.817 1.029,-1.41 1.872,-1.48 2.569,-0.213 4.539,-2.045 4.539,-4.354 v -0.193 c 0,-2.336 -1.971,-4.189 -4.542,-4.408 -0.841,-0.071 -1.6,-0.663 -1.816,-1.479 -0.504,-1.899 -1.333,-3.802 -2.41,-5.654 -0.421,-0.724 -0.359,-1.633 0.174,-2.279 1.648,-1.997 1.688,-4.496 0.106,-6.078 l -0.104,-0.095 c -0.85,-0.848 -1.954,-1.292 -3.147,-1.292 -1.151,0 -2.298,0.414 -3.229,1.164 -0.645,0.52 -1.544,0.589 -2.261,0.172 C 45.486,14.942 43.578,14.15 41.599,13.625 40.79,13.411 40.2,12.716 40.12,11.883 39.871,9.303 38.142,7.5 35.913,7.5 H 35.72 c -2.313,0 -4.264,1.895 -4.535,4.407 -0.089,0.823 -0.676,1.506 -1.477,1.719 -1.935,0.512 -3.806,1.283 -5.562,2.291 -0.68,0.392 -1.528,0.348 -2.165,-0.112 -1.011,-0.729 -2.28,-1.146 -3.482,-1.146 -1.169,0 -2.203,0.391 -2.912,1.1 l -0.14,0.139 c -1.6,1.6 -1.107,4.267 0.206,6.074 0.471,0.647 0.511,1.513 0.101,2.2 -1.046,1.755 -1.841,3.707 -2.431,5.965 -0.197,0.755 -0.71,1.326 -1.479,1.463 C 9.308,32.052 7.5,33.914 7.5,35.931 v 0.193 c 0,1.996 1.806,3.835 4.34,4.279 0.771,0.135 1.339,0.707 1.537,1.465 0.547,2.094 1.319,4.047 2.348,5.805 0.397,0.678 0.347,1.527 -0.109,2.168 -1.491,2.098 -1.515,4.893 -0.045,6.362 l 0.168,0.181 c 0.787,0.786 1.821,0.961 2.544,0.961 1.171,0 2.452,-0.451 3.515,-1.235 0.351,-0.26 0.767,-0.391 1.185,-0.391 z"
   id="path3147"
   style="fill:#ffffff" />
	</g>
	<g
   id="g3163"
   style="fill:#ffffff">
		<g
   id="g3153"
   style="fill:#ffffff">
			<path
   d="m 52.704,30.489 c -0.402,0 -0.781,-0.244 -0.934,-0.642 -2.54,-6.612 -9.007,-11.054 -16.092,-11.055 -0.553,0 -1,-0.448 -1,-1 0,-0.552 0.447,-1 1,-1 v 0 c 7.906,0 15.124,4.958 17.959,12.338 0.197,0.515 -0.06,1.094 -0.575,1.292 -0.118,0.046 -0.239,0.067 -0.358,0.067 z"
   id="path3151"
   style="fill:#ffffff" />
		</g>
		<g
   id="g3157"
   style="fill:#ffffff">
			<path
   d="m 18.936,44.918 c -0.339,0 -0.67,-0.173 -0.857,-0.484 -0.199,-0.33 -0.288,-0.574 -0.448,-1.02 -0.077,-0.211 -0.175,-0.483 -0.318,-0.857 -0.198,-0.516 0.06,-1.094 0.575,-1.291 0.515,-0.199 1.094,0.06 1.292,0.574 0.149,0.39 0.252,0.674 0.331,0.894 0.146,0.401 0.188,0.513 0.281,0.667 0.285,0.474 0.133,1.088 -0.34,1.373 -0.163,0.098 -0.341,0.144 -0.516,0.144 z"
   id="path3155"
   style="fill:#ffffff" />
		</g>
		<g
   id="g3161"
   style="fill:#ffffff">
			<path
   d="m 35.271,54.895 v 0 c -5.683,0 -11.045,-2.494 -14.711,-6.843 -0.356,-0.423 -0.303,-1.054 0.12,-1.409 0.421,-0.356 1.053,-0.303 1.409,0.12 3.285,3.896 8.09,6.132 13.182,6.132 0.552,0 1,0.448 1,1 0,0.553 -0.448,1 -1,1 z"
   id="path3159"
   style="fill:#ffffff" />
		</g>
	</g>
</g>
</svg>
